
<svg version="1.1" xmlns="http://www.w3.org/2000/svg" xmlns:xlink="http://www.w3.org/1999/xlink" x="0px" y="0px" viewBox="0 0 256 256" enable-background="new 0 0 256 256" xml:space="preserve">
<g><g><g><path fill="#000000" d="M10,128v118h118h118V128V10H128H10V128z M239,127.8V239H127.8H16.5V127.8V16.5h111.3H239L239,127.8L239,127.8z"/><path fill="#000000" d="M136,82.2c-0.3,0.5-26.3,88.5-26.6,90.1l-0.2,1.3h6.3c3.5,0,6.3-0.1,6.3-0.3c0-0.2,25.1-85.4,26.7-90.7c0.2-0.7-0.3-0.8-6-0.8C139,81.9,136.1,82,136,82.2z"/><path fill="#000000" d="M69.2,115.4l-30,14l0.1,5.6l0.1,5.5l29.7,13.8c16.3,7.6,29.8,13.8,30,13.8c0.2,0,0.3-3,0.2-6.6l-0.1-6.6l-22.4-9.8c-12.3-5.4-22.4-10-22.4-10.2c0-0.2,10.1-4.8,22.4-10.2l22.4-9.8l0.1-3.5c0.1-1.9,0.1-4.9,0-6.7l-0.1-3.2L69.2,115.4z"/><path fill="#000000" d="M156.1,108.1l0.1,6.7l23.4,10.1c12.9,5.5,23.2,10.1,22.9,10.2c-0.2,0.1-10.8,4.6-23.4,10l-23,9.9l-0.1,6.6c-0.1,6.2,0,6.6,0.7,6.4c0.5-0.1,14-6.3,30-13.7l29.2-13.4l0.1-5.9l0.1-6l-25.9-11.8c-14.2-6.5-27.8-12.7-30.1-13.8l-4.3-2L156.1,108.1z"/></g></g></g>
</svg>